<svg xmlns="http://www.w3.org/2000/svg" width="535" height="581" viewBox="0 0 535 581"><g transform="translate(-260 -249)"><g style="isolation:isolate"><g transform="translate(835 23)"><g transform="translate(13 -32)"><rect width="115" height="240" transform="translate(-191 266)" fill="#ebae93"/><g transform="translate(-202 258)" fill="#f2bda5" stroke="#ebae93" stroke-width="2"><rect width="118" height="241" stroke="none"/><rect x="1" y="1" width="116" height="239" fill="none"/></g><rect width="90" height="214" transform="translate(-188 272)" fill="#ebae93"/></g><g transform="translate(-97 51)"><rect width="42" height="152" transform="translate(-447 234)" fill="#ebae93"/><g transform="translate(-455 227)" fill="#f2bda5" stroke="#ebae93" stroke-width="2"><rect width="42" height="152" stroke="none"/><rect x="1" y="1" width="40" height="150" fill="none"/></g></g><g transform="translate(-33 132)"><rect width="42" height="152" transform="translate(-447 234)" fill="#ebae93"/><g transform="translate(-455 227)" fill="#f2bda5" stroke="#ebae93" stroke-width="2"><rect width="42" height="152" stroke="none"/><rect x="1" y="1" width="40" height="150" fill="none"/></g></g><g transform="translate(-97 268)"><rect width="42" height="152" transform="translate(-447 234)" fill="#ebae93"/><g transform="translate(-455 227)" fill="#f2bda5" stroke="#ebae93" stroke-width="2"><rect width="42" height="152" stroke="none"/><rect x="1" y="1" width="40" height="150" fill="none"/></g></g></g><path d="M21,2V0H535V2ZM0,2V0H10V2Z" transform="translate(260 767)" fill="#7d4830"/></g><g transform="translate(842.418 13)"><g transform="translate(-274.465 442.956)"><path d="M187.248,146.831c-1.375-18.43-9.624-45.1,6.9-58.829,15.862-13.179,21.656,4.689,33.161,15.785,16.521-13.02-.943-54.979,24.793-62.279,24.27-6.882,36.281,18.609,25.946,43.374-3.242,7.775-12.864,29.294-11.358,37.889,1.6,9.079,14.358,3.524,21.4,8.13,20.78,13.6-2.671,28.885-16.981,40.714-6.72,5.561-14.62,14.52-9.34,23.915,4.314,7.692,13.52,7.277,15.441,18.3,3.85,22.07-20.82,20.158-33.332,28.41-17.953,11.835,2.165,28.3-4.214,44.286-7.061,17.694-27.009,22.3-43.675,24.389-12.395,1.552-70.218-.011-71.505,2.842C138.53,282.6,90.615,258.394,101.49,224.44c2.216-6.919,9.315-16.342,18.084-14.231,7.871,1.9,10.417,13.844,17.4,16.8,11.5,4.87,6.922-10.554,5.03-18.561-2.177-9.221-6.47-18.447-7.272-27.947-1.31-15.66,8.474-32.132,26.5-27.248,6.419,1.742,13.784,13.083,19.695,12.975C190.121,166.057,187.74,153.443,187.248,146.831Z" transform="translate(-99.869 -40.368)" fill="#eeb9a1"/></g><g transform="translate(-268.525 463.697)"><path d="M103.321,317.642a1,1,0,0,1-1.012-1.7C224.585,210.43,257.07,50.086,257.379,48.48a1.006,1.006,0,1,1,1.975.384c-.315,1.614-32.937,162.64-155.738,268.6A.826.826,0,0,1,103.321,317.642Z" transform="translate(-101.959 -47.667)" fill="#ffd2be"/><g transform="translate(8.345 172.017)"><path d="M200.743,155.7c-10.4,3.958-34.443,11.457-61.267,8.57l-.321-.034-.239-.216c-22.176-19.726-33.854-54.152-33.971-54.5a1.006,1.006,0,0,1,1.91-.637c.114.338,11.545,34.016,33.158,53.419,34.934,3.657,65.007-10.534,65.308-10.676a1.006,1.006,0,1,1,.872,1.813C206.117,153.481,204.173,154.4,200.743,155.7Z" transform="translate(-104.895 -108.203)" fill="#ffd2be"/></g><g transform="translate(44.479 111.061)"><path d="M208.745,136.632c-12.466,4.743-31.664,10.443-48.668,8.732l-.233-.026-.2-.125c-24.628-15.5-41.262-55.388-41.959-57.076a1.006,1.006,0,0,1,1.858-.77c.171.406,16.993,40.768,40.97,56.016,27.222,2.623,60.284-14.117,60.622-14.282a1.007,1.007,0,0,1,.918,1.793C221.918,130.963,216.7,133.6,208.745,136.632Z" transform="translate(-117.611 -86.751)" fill="#ffd2be"/></g><g transform="translate(97.117 42.214)"><path d="M186.086,118.781c-8.468,3.222-17.5,5.359-25,4.126l-.324-.057-.23-.236c-17.618-18-24.114-57.266-24.383-58.928a1.006,1.006,0,0,1,1.986-.318c.065.4,6.6,39.944,23.6,57.6,19.425,2.9,50.776-18.229,51.091-18.442a1.005,1.005,0,0,1,1.131,1.662A151.419,151.419,0,0,1,186.086,118.781Z" transform="translate(-136.136 -62.522)" fill="#ffd2be"/></g></g><g transform="translate(-261.091 341.701)"><g transform="translate(10.75 14.506)"><path d="M108.358,277.256c.921-1.5,91.663-151.615,44.846-266.673l1.83-.744c24.676,60.645,11.116,130.425-4.606,178.283-17.012,51.8-40.157,89.794-40.387,90.166Z" transform="translate(-108.358 -9.839)" fill="#804b33"/></g><g transform="translate(0.872 11.952)"><path d="M144.329,72.767c-15.546-14.188-32.792-35.386-39.447-63.373L106.8,8.94c13,54.655,67.115,83.062,67.661,83.343l-.9,1.753A153.879,153.879,0,0,1,144.329,72.767Z" transform="translate(-104.882 -8.94)" fill="#804b33"/></g><g transform="translate(65.143)"><path d="M127.5,50.657c15.958-24.025,19.084-45.7,19.112-45.923L148.567,5c-.028.224-3.2,22.321-19.419,46.744Z" transform="translate(-127.5 -4.734)" fill="#804b33"/></g><g transform="translate(64.083 51.145)"><path d="M128.352,115.82l-1.225-1.54c44.073-35,57.661-90.984,57.795-91.547l1.921.455C186.709,23.756,172.979,80.386,128.352,115.82Z" transform="translate(-127.127 -22.733)" fill="#804b33"/></g><g transform="translate(0 80.567)"><path d="M162.239,124.066c-44.158-44.5-57.53-89.984-57.664-90.436l1.9-.543c.128.449,13.384,45.471,57.161,89.586Z" transform="translate(-104.575 -33.087)" fill="#804b33"/></g><g transform="translate(32.971 26.54)"><path d="M119.594,59.2c2.2-21.582-3.359-44.425-3.416-44.65l1.915-.475c.06.233,5.7,23.409,3.467,45.326Z" transform="translate(-116.178 -14.074)" fill="#804b33"/></g><g transform="translate(97.492 38.208)"><g transform="translate(0 0)"><path d="M141.248,80.68c-7.291-37.065,4.606-62.25,4.728-62.5l1.776.861c-.117.242-11.727,24.878-4.566,61.256Z" transform="translate(-138.884 -18.18)" fill="#804b33"/></g></g><g transform="translate(27.376 93.019)"><path d="M114.209,78.547c7.7-17.325,7.661-40.831,7.661-41.064l1.972-.014c0,.239.048,24.162-7.831,41.879Z" transform="translate(-114.209 -37.469)" fill="#804b33"/></g></g><g transform="translate(-151.773 392.704)"><circle cx="10.505" cy="10.505" r="10.505" fill="#ad7860"/></g><g transform="translate(-160.144 371.171)"><circle cx="6.74" cy="6.74" r="6.74" fill="#ad7860"/></g><g transform="translate(-181.601 334)"><circle cx="6.743" cy="6.743" r="6.743" fill="#ad7860"/></g><g transform="translate(-218.413 339.737)"><circle cx="12.659" cy="12.659" r="12.659" fill="#ad7860"/></g><g transform="translate(-234.642 357.724)"><circle cx="6.74" cy="6.74" r="6.74" fill="#ad7860"/></g><g transform="translate(-269.05 342.067)"><circle cx="10.028" cy="10.028" r="10.028" fill="#ad7860"/></g><g transform="translate(-233.744 423.379)"><circle cx="9.948" cy="9.948" r="9.948" fill="#ad7860"/></g><g transform="translate(-271.292 409.861)"><circle cx="9.457" cy="9.457" r="9.457" fill="#ad7860"/></g><g transform="translate(-551.418 405.59)"><path d="M51,215.142c5.939,3.117,16.268,14.734,23.341,13.04,9.778-2.339-.21-12.736-4.262-16.635A66.179,66.179,0,0,0,32.23,193.836c-15.191-1.606-26.276-6.283-29.359-23.451-3.583-19.954,14.177-18.558,28.9-15.472,6.112,1.282,16.444,7.152,22.443,3.222,5.626-3.683,1.216-10.065-2.969-14.591-9.5-10.267-25.682-10.252-33.153-21.9-7.351-11.466-8-28.4,8.709-27.887,7.411.224,15.944,2.955,21.607,8.232,5.322,4.961,5.515,12.412,10.036,17.353,4.853,5.308,9.88,3.947,10.747-3.671.659-5.8-3.2-13.264-5.138-18.473-6.9-18.51-18.811-66.439,12.077-69.826,15.938-1.748,28.467,11.4,30.612,27.489,1.145,8.57.011,16.373-.992,25.034-1.91,16.478-20.7,41.129-6.82,35.488,5.419-2.2,7.391-9.488,9.173-14.594,3.467-9.954,7.823-33.19,22.215-31.317,21.016,2.734,14.555,34.286,6.3,45.82-9.175,12.827-25.861,20.312-31.348,35.9-1.847,5.243-.594,15.31,7.993,11.915,6.823-2.7,6.948-15.114,8.974-20.925,2.373-6.806,4.933-13.4,13.338-13.551,10.713-.2,12.622,10.073,13.353,18.891,1.884,22.744-12.375,33.738-19.6,52.813-2.015,5.314-4.549,14.41-2.35,19.86,3.006,7.465,9.116,7.058,10.619-.534,2-10.085.08-33.266,17.123-30.953,19.831,2.694,15.745,30.524,11.883,43.749-3.106,10.633-15.9,33.619-6.254,44.195,6.82,7.488,9.792-.168,8.405-6.862-1.5-7.243-5.76-12.349-3.222-19.948,4.936-14.779,22.491-12.321,29.541-.2,9.957,17.118,1.361,40.683-4.8,57.451-4.879,13.273-9.4,26.577-21.647,34.093-13.04,8-25.98,14.947-41.774,13.512-12.429-1.128-26.589-9.6-24.71-23.241,2.1-15.262,22.616-10.125,33.914-13.79-.764-4.441-4.515-5.078-8.229-5.376-13.04-1.037-25.628,5.93-39.279,2.072-14.606-4.126-29.362-17.393-29.22-33.567.2-22.551,22.548-7.007,33.6-3.8,9.178,2.663,13.728-1.983,6.195-9.332-5.385-5.254-12.543-7.468-19.939-7.743-13.387-.492-29.777,7.269-41.339-1.239C27.015,250.7,18.368,233.24,19.735,219.675,21.506,202.094,40.749,209.766,51,215.142Z" transform="translate(-2.404 -27.218)" fill="#804b33"/></g><g transform="translate(-536.783 445.475)"><g transform="translate(60.231)"><path d="M153.685,344.628a1.488,1.488,0,0,0,1.02-2.566c-.335-.318-34.059-32.525-65.814-85.31C59.623,208.1,26.084,131.488,32.529,42.848a1.487,1.487,0,0,0-1.375-1.591,1.505,1.505,0,0,0-1.591,1.375c-6.5,89.45,27.313,166.689,56.829,215.729,31.962,53.109,65.933,85.54,66.271,85.861A1.5,1.5,0,0,0,153.685,344.628Z" transform="translate(-28.75 -41.254)" fill="#d7a28a"/></g><g transform="translate(95.932 197.294)"><path d="M55.752,186.045a61,61,0,0,0,37.9-13.389c25.81-20.087,18.771-60.946,18.7-61.361a.754.754,0,0,0-.864-.6.746.746,0,0,0-.6.864c.071.406,6.948,40.393-18.146,59.923C67.587,191.055,42.548,182.905,42.3,182.817a.744.744,0,1,0-.477,1.409A48.517,48.517,0,0,0,55.752,186.045Z" transform="translate(-41.314 -110.686)" fill="#d7a28a"/></g><g transform="translate(111.911 134.489)"><path d="M47.678,160.034a.758.758,0,0,0,.384-.105c29.24-17.6,24.219-70.153,24.165-70.678a.743.743,0,0,0-1.478.151c.054.523,4.978,52.137-23.451,69.255a.739.739,0,0,0-.253,1.017A.727.727,0,0,0,47.678,160.034Z" transform="translate(-46.937 -88.583)" fill="#d7a28a"/></g><g transform="translate(58.989 221.453)"><path d="M60.238,128.234a93.567,93.567,0,0,0,32.979-6.226.743.743,0,0,0-.585-1.367c-.341.148-34.647,14.543-63.216-1.361a.743.743,0,0,0-.722,1.3C39.085,126.367,50.207,128.234,60.238,128.234Z" transform="translate(-28.313 -119.187)" fill="#d7a28a"/></g><g transform="translate(16.992 160.375)"><path d="M74.819,119.076a172.642,172.642,0,0,0,21.173-1.236.744.744,0,0,0-.2-1.475c-.608.082-60.912,7.786-80.928-18.376a.743.743,0,1,0-1.182.9C26.643,115.83,55.013,119.076,74.819,119.076Z" transform="translate(-13.533 -97.693)" fill="#d7a28a"/></g><g transform="translate(82.653 82.08)"><path d="M37.38,130.93a.75.75,0,0,0,.389-.111C68.1,112.182,70.661,71.337,70.683,70.925a.74.74,0,0,0-.7-.781.7.7,0,0,0-.781.7c-.02.4-2.549,40.487-32.206,58.71a.742.742,0,0,0-.242,1.023A.725.725,0,0,0,37.38,130.93Z" transform="translate(-36.641 -70.14)" fill="#d7a28a"/></g><g transform="translate(0 100.046)"><path d="M72.5,91.323c5.311,0,8.849-.159,9.4-.185a.739.739,0,0,0,.708-.776.718.718,0,0,0-.776-.708c-.548.023-55,2.438-73.043-13.014a.745.745,0,0,0-.969,1.131C21.822,89.772,55.858,91.323,72.5,91.323Z" transform="translate(-7.554 -76.462)" fill="#d7a28a"/></g><g transform="translate(65.613 21.295)"><path d="M31.388,106.71a.744.744,0,0,0,.3-.063C72.562,88.507,75.975,49.938,76,49.549a.744.744,0,0,0-.685-.8.763.763,0,0,0-.8.685c-.028.381-3.4,38.083-43.433,55.854a.742.742,0,0,0,.3,1.421Z" transform="translate(-30.644 -48.748)" fill="#d7a28a"/></g><g transform="translate(10.745 38.889)"><path d="M60.8,87.283q1.969,0,4.015-.151a.744.744,0,1,0-.108-1.483c-34.667,2.594-51.8-29.976-51.967-30.305a.744.744,0,0,0-1.324.679C11.582,56.35,27.833,87.283,60.8,87.283Z" transform="translate(-11.335 -54.94)" fill="#d7a28a"/></g></g><g transform="translate(-205.135 615.687)"><path d="M180.056,103.875c-13.676-5.3-17.052,11.128-20.093,19.7.338-9.738-9.945-29.066-22.86-20.115-12.475,8.647.588,27.006,12.133,27.708l-6.8-.063c-8.655.722-23.085,5.061-16.5,16.529,5.234,9.113,22.483,3.72,29.655-4.43-4.612,8.314-5.129,31.021,6.9,28.421,5.547-1.2,10.88-7.954,10.264-15.214a34.629,34.629,0,0,0-4.606-15.183c3.62,5.072,8.925,10.431,15.489,12.386,5.649,1.688,12.7-1.372,14.3-7.2,3.364-12.253-17.842-19.871-28.578-16.652C180.5,126.693,194.454,109.453,180.056,103.875Z" transform="translate(-124.267 -101.155)" fill="#fff"/></g><g transform="translate(-180.732 635.937)"><g transform="translate(0 0)"><ellipse cx="8.866" cy="8.13" rx="8.866" ry="8.13" transform="matrix(0.858, -0.514, 0.514, 0.858, 0, 9.109)" fill="#eeb9a1"/></g></g><path d="M98.673,42.777s2.447-6.905,6.476-7.769,6.47,3.739,3.882,10.647-7.911,12.085-10.36,9.207S98.673,42.777,98.673,42.777Z" transform="translate(-378.538 392.528)" fill="#de999c"/><path d="M5.1,63.8C20.349,41.351,65.249,29.533,102.027,27.4h.013c9.429-2.808,14.2-8,23.422-27.4,11.63,9.6,80.607,8.812,90.9,0,6.272,17.063,17.771,24,25.8,26.822,36.363,2.782,84.049,15.335,98.749,36.971,15.25,22.443-6.332,35.966-30.212,35.966s-104.161-4.029-104.161-4.029L192.06,89.615c-6.966,3.192-14.112,4.788-21.165,3.916A63.412,63.412,0,0,1,154.476,89.4L139.47,95.732s-80.277,4.03-104.161,4.03S-10.152,86.239,5.1,63.8Z" transform="translate(-483.214 661.974)" fill="#653018"/><path d="M117.274,176.131S82.048,153.626,63.79,148.062s-26.316-2.108-24.395-7.1,18.641-10.167,25.338-7.482,14.947,9.59,22.429,8.439,16.879-7.1,22.636.386S123.989,158.7,129.363,162.2C127.248,173,117.274,176.131,117.274,176.131Z" transform="translate(-486.209 572.718)" fill="#ffcdb7"/><path d="M.786,25.637S-4.1,5.865,10.476,3.306C23.981.93,59.018,10.79,78.887,13.118a386.947,386.947,0,0,0,42.251,2.214c1.228-1.59,2.523-3.323,3.87-5.2,10.165,1.118,30.584,2.558,54.79,3.1,15.015-1.044,27.549-2.257,35.214-3.1q1.166,1.624,2.277,3.1c20.432-.49,41.234-1.88,59.382-4.738,11.523-1.813,42.658-9.652,51.887-8.348C352.237,3.493,346,24.609,346,24.609S343.672,68.82,196.72,59.031a182.5,182.5,0,0,1-23.262-3.054,166.849,166.849,0,0,1-29.523,4.4c-12.643.751-24.18,1.093-34.688,1.093C1.668,61.477.786,25.637.786,25.637Z" transform="translate(-483.971 720.186)" fill="#7d4830"/><path d="M114.761,176.131s35.224-22.505,53.484-28.069,26.313-2.108,24.395-7.1S174,130.8,167.3,133.485s-14.947,9.59-22.428,8.439-16.876-7.1-22.633.386S108.049,158.7,102.676,162.2C104.784,173,114.761,176.131,114.761,176.131Z" transform="translate(-369.163 572.718)" fill="#ffcdb7"/><path d="M369.525,57.477c-5.317-4.124-26.311-19.156-34.556-31.99a85.889,85.889,0,0,0-9.352-9.167L336.616,0s7.7,12.469,12.648,14.3c2.92,1.082,5.458.7,8.912.311a49.226,49.226,0,0,1,8.965-.311,54.747,54.747,0,0,0,10.247-.228,16.52,16.52,0,0,1,3.594-.321c1.466.275,2.015,4.95-1.836,5.865s-13.1,0-15.123,2.2,4.493,7.055,8.891,7.331l4.4.276s3.668.735,3.393-1.74-2.842-5.5-.552-7.791,4.126-2.475,4.493-1.191,1.926,11.915.824,14.117-12.19,2.29-12.19,2.29A66.819,66.819,0,0,0,394,43.038c3.99,1.1,2.018,6.278-4.214,4.721s-16.132-5.317-20.166-8.249c4.035,5.041,10.818,9.715,16.134,12.557s.915,6.234-4.4,3.577-12.193-8.525-14.389-10.818c1.375,5.041,7.516,10.176,8.707,11.782a1.827,1.827,0,0,1-1.765,2.838C372.844,59.445,371.387,58.923,369.525,57.477ZM20.4,56.607c1.19-1.606,7.334-6.741,8.709-11.782-2.2,2.293-9.076,8.159-14.393,10.818s-9.715-.736-4.4-3.577,12.1-7.516,16.135-12.557C22.418,42.441,12.518,46.2,6.286,47.759s-8.2-3.621-4.217-4.721a66.819,66.819,0,0,0,20.715-7.931s-11.091-.094-12.191-2.29.457-12.836.824-14.117,2.2-1.1,4.493,1.191-.273,5.316-.548,7.791,3.389,1.74,3.389,1.74l4.4-.276c4.4-.275,10.906-5.132,8.891-7.331s-11.275-1.285-15.125-2.2-3.3-5.59-1.833-5.865a16.523,16.523,0,0,1,3.595.321,54.734,54.734,0,0,0,10.247.228,49.237,49.237,0,0,1,8.966.311c3.453.386,5.99.771,8.911-.311C51.752,12.469,59.452,0,59.452,0l11,16.319A86.048,86.048,0,0,0,61.1,25.486c-8.249,12.835-29.24,27.867-34.556,31.99-1.863,1.446-3.321,1.968-4.377,1.968A1.827,1.827,0,0,1,20.4,56.607Z" transform="translate(-510.127 697.437)" fill="#ffcdb7"/><path d="M105.842,21.553S81.749,17.945,74.088,43.212c-3.308,10.906.639,16.717-.5,22.471s-5.572,26.62.44,32.181c9.88,9.136,10.451,24.025,16.706,31.47,5,5.95,11.452,1.645,20.246,3.563,11.793,2.572,21.164,18.149,30.757-.457s14.961-33.377,13.62-53.9,7.672-33.57-12.469-39.9A176.579,176.579,0,0,1,105.842,21.553Z" transform="translate(-427.606 367.613)" fill="#250c00"/><path d="M127.9,130.73C140.8,126.7,185.445,98.354,187.17,97.862c-18.416-8.346-34.818-16.112-40.288-22.443s-4.89-25.9-4.89-25.9L126.17,53.673l-15.822-4.149s.577,19.567-4.89,25.9-21.869,14.1-40.285,22.443c1.722.492,46.374,28.839,59.267,32.868v1.083s.625-.193,1.728-.54l1.731.54V130.73Z" transform="translate(-438.227 419.451)" fill="#f2bda5"/><path d="M16.943,76.057A34.3,34.3,0,0,1,11.262,62.9c-2.513,2.476-7.664-2.629-10.2-9.383C-1.522,46.61.924,42.007,4.951,42.871c2,.429,3.609,2.345,4.723,4.166a71.516,71.516,0,0,1,3.048-20.662C17.326,12.182,39.771,0,39.771,0S69.886,11.793,72.955,34.429,71.037,67.809,67.394,75.1,48.02,94.664,41.686,94.664,25.765,87.565,16.943,76.057Z" transform="translate(-352.116 384.665)" fill="#ffcdb7"/><path d="M37.034,11.01c9.212,2.446,11.8.719,17.843-2.733a11.9,11.9,0,0,1-9.737,5.068A16.648,16.648,0,0,1,37.034,11.01ZM2.725,8.276c6.041,3.452,8.633,5.179,17.839,2.733a16.639,16.639,0,0,1-8.1,2.334A11.9,11.9,0,0,1,2.725,8.276Zm39.29-6.6A31,31,0,0,1,47.307.337,22.2,22.2,0,0,1,52.8.078a11.981,11.981,0,0,1,5.248,1.535,19.624,19.624,0,0,0-5.277-.5,41.528,41.528,0,0,0-5.245.554c-3.5.537-6.948,1.409-10.491,2.2A27.98,27.98,0,0,1,42.016,1.675Zm-31.49,0a40.319,40.319,0,0,0-5.249-.554A19.492,19.492,0,0,0,0,1.616,12,12,0,0,1,5.249.081a22.207,22.207,0,0,1,5.489.258,30.7,30.7,0,0,1,5.294,1.338A27.943,27.943,0,0,1,21.01,3.869C17.47,3.082,14.023,2.21,10.526,1.675Z" transform="translate(-339.601 427.605)" fill="#250c00"/><path d="M83.781,47.235s5.479,6.331,10.15,6.041,9.559-5.538,9.559-5.538-7.337-1.8-8.2-1.728-1.654,1.3-1.654,1.3-1-1.37-1.438-1.3S83.781,47.235,83.781,47.235Z" transform="translate(-403.959 412.974)" fill="#ad7860"/><path d="M220.622,154.967c-9.55-18.974-16.114-42.775-20.263-58.841-2.807,9.157-2.995,16.448-4.126,29.741-3.256,38.27,8.292,33.163,19.093,52.79,0,0-25.04,22.582-67.477,23.235-42.763.662-68.556-19.4-68.556-19.4,14.436-31.132,17.143-36.074,17.143-57.3a86.493,86.493,0,0,0-2.3-21.173c-4.152,15.36-10.1,34.886-18.182,50.95-13.173,26.168-40.075,70.818-40.075,70.818A303.07,303.07,0,0,1,0,198.291c6.618-4.513,33.269-49.413,40.037-61.759S52.22,90,59.857,60.218,75.969,18.837,75.969,18.837h0c8.828-7.292,34.6-16.81,34.6-16.81S120.9,35.693,147.758,37c26.859-1.3,38.327-37,38.327-37s25.7,11.549,34.523,18.838h0s8.473,11.6,16.115,41.381,13.052,63.964,19.823,76.314,33.416,57.246,40.037,61.759A303.274,303.274,0,0,1,260.7,225.786S233.8,181.136,220.622,154.967Z" transform="translate(-460.384 504.23)" fill="#d7a28a"/><path d="M57.282,194.559c-10.681-4.45-8.123-16.4-3.134-34.815s1.921-32.226-1.247-37.406-3.742-14.532-1.438-21.724,7.7-12.713,10.789-22.442S59.092,66.01,52.185,61.484c-5.5-3.606-4.029-16.836-19.854-12.23-9.468,2.754-14.146-2.627-16.377-7.4C13.627,46.8,8.978,55.134,1.975,60.764-.137,51.555-1.06,37.554,1.8,32.758A15.654,15.654,0,0,1,7.6,27.5c-1.446-4.248-.4-9.1,6.456-13.161,18.131-27.935,52.37-9.59,58.124,8.824C89.449,25.85,89.062,53.473,87.912,65.288s-3.452,16.192-6.9,29.235,8.823,16.115,12.182,28.39-11.417,12.276-4.9,33.761c5.586,18.4-4.931,39.817-21.939,39.814A23.534,23.534,0,0,1,57.282,194.559Z" transform="translate(-344.246 372.529)" fill="#250c00"/><g transform="translate(-473.705 746.324)"><path d="M85.54,149.847c-13.676-5.3-17.049,11.13-20.093,19.7.341-9.735-9.945-29.066-22.86-20.113-12.474,8.644.588,27,12.134,27.705l-6.8-.063c-8.655.722-23.088,5.061-16.5,16.529,5.234,9.113,22.482,3.72,29.652-4.43-4.615,8.314-5.129,31.021,6.9,28.421,5.547-1.2,10.88-7.954,10.264-15.214A34.594,34.594,0,0,0,73.631,187.2c3.623,5.072,8.925,10.431,15.492,12.386,5.649,1.688,12.7-1.372,14.3-7.2,3.364-12.25-17.845-19.865-28.578-16.646C85.987,172.659,99.939,155.425,85.54,149.847Z" transform="translate(-29.752 -147.128)" fill="#fff"/></g><g transform="translate(-449.311 766.574)"><g transform="translate(0 0)"><ellipse cx="8.866" cy="8.127" rx="8.866" ry="8.127" transform="translate(0 9.11) rotate(-30.918)" fill="#eeb9a1"/></g></g><g transform="translate(-473.705 553.007)"><path d="M85.54,81.82c-13.676-5.3-17.049,11.128-20.093,19.7.341-9.735-9.945-29.066-22.86-20.115-12.474,8.647.588,27,12.134,27.708l-6.8-.062c-8.655.719-23.088,5.058-16.5,16.529,5.234,9.113,22.482,3.72,29.652-4.43-4.615,8.314-5.129,31.021,6.9,28.421,5.547-1.2,10.88-7.954,10.264-15.217a34.581,34.581,0,0,0-4.609-15.18c3.623,5.069,8.925,10.429,15.492,12.386,5.649,1.685,12.7-1.372,14.3-7.2,3.364-12.253-17.845-19.868-28.578-16.649C85.987,104.632,99.939,87.4,85.54,81.82Z" transform="translate(-29.752 -79.097)" fill="#fff"/></g><g transform="translate(-449.314 573.263)"><g transform="translate(0 0)"><ellipse cx="8.866" cy="8.127" rx="8.866" ry="8.127" transform="translate(0 9.11) rotate(-30.918)" fill="#eeb9a1"/></g></g></g></g></svg>